<?xml version="1.0" encoding="utf-8"?>
<!-- Generator: Adobe Illustrator 26.1.0, SVG Export Plug-In . SVG Version: 6.00 Build 0)  -->
<svg version="1.1" id="Capa_1" xmlns="http://www.w3.org/2000/svg" xmlns:xlink="http://www.w3.org/1999/xlink" x="0px" y="0px"
	 viewBox="0 0 760.85 265.14" style="enable-background:new 0 0 760.85 265.14;" xml:space="preserve">
<style type="text/css">
	.st0{fill:#002B49;}
	.st1{fill-rule:evenodd;clip-rule:evenodd;fill:#002B49;}
</style>
<g>
	<path class="st0" d="M747.87,122.41c-7.19,0-13.01-5.83-13.01-13c0-7.18,5.83-13,13.01-13c7.15,0,12.98,5.82,12.98,13
		C760.85,116.58,755.02,122.41,747.87,122.41 M747.87,97.97c-6.34,0-11.46,5.14-11.46,11.45s5.12,11.43,11.46,11.43
		c6.29,0,11.41-5.12,11.41-11.43C759.28,103.11,754.16,97.97,747.87,97.97"/>
	<path class="st1" d="M743.07,115.26v-11.68h5.29c0.63-0.02,1.23,0.09,1.8,0.29c0.56,0.19,1.03,0.53,1.4,1.03
		c0.37,0.48,0.55,1.17,0.56,2.05c0.02,0.5-0.08,0.98-0.26,1.44c-0.15,0.46-0.43,0.84-0.84,1.17c-0.4,0.32-0.92,0.54-1.58,0.66
		l3.21,5.06h-1.89l-3.14-4.96h-2.99v4.96h-1.56V115.26z M744.62,104.92v4.03h3.5c0.75,0.02,1.34-0.12,1.78-0.42
		c0.45-0.29,0.67-0.82,0.67-1.59c0-0.75-0.23-1.29-0.67-1.59c-0.44-0.3-1.03-0.44-1.78-0.42h-3.5V104.92z"/>
	<polygon class="st1" points="31.58,200.9 0,125.59 22.27,125.59 42.78,178.36 43.46,178.36 63.98,125.59 86.25,125.59 54.67,200.9 
			"/>
	<path class="st1" d="M130.83,140.47H95.05v-14.99h40.91c4.26-0.07,8.09,0.38,11.46,1.35c3.4,0.96,6.68,2.85,9.87,5.67
		c3.27,3.03,5.43,6.38,6.44,10.05c1.02,3.67,1.48,7.8,1.37,12.37v45.89h-51.96c-7.57-0.12-13.37-2.25-17.34-6.36
		c-3.97-4.13-5.98-9.51-6-16.18c0.03-6.74,2.03-12.17,6-16.3s9.77-6.26,17.34-6.38h32.4v-0.67c0.06-2.04-0.02-3.87-0.25-5.44
		s-0.96-3.18-2.18-4.82c-1.5-1.95-3.29-3.15-5.39-3.61C135.63,140.58,133.34,140.39,130.83,140.47 M120.83,185.69h24.7v-14.98h-25.1
		c-2.49-0.1-4.72,0.33-6.69,1.29c-1.99,0.98-3.05,3.06-3.17,6.27c0.12,3.14,1.2,5.19,3.26,6.14
		C115.89,185.36,118.22,185.78,120.83,185.69"/>
	<polygon class="st1" points="254.67,200.9 223.1,125.59 245.37,125.59 265.87,178.36 266.56,178.36 287.07,125.59 309.34,125.59 
		277.75,200.9 	"/>
	<path class="st1" d="M328.17,173.91v-32.52h-13.49v-15.8h13.49h19.7h18.77v15.8h-18.77v27.25c-0.01,3.14,0.18,5.86,0.61,8.19
		c0.42,2.33,1.25,4.14,2.5,5.45c2.2,2.03,4.95,2.97,8.22,2.82h7.43v15.8h-14.31c-1.09,0.03-2.62-0.07-4.61-0.3
		c-1.98-0.22-4.06-0.7-6.25-1.42c-2.19-0.71-4.15-1.8-5.87-3.27c-3.33-3.01-5.42-6.31-6.29-9.89
		C328.44,182.44,328.05,178.41,328.17,173.91"/>
	<path class="st1" d="M412.4,141.31h-9.45v59.53h-19.58v-75.3h34.7c2.42-0.06,5.03,0.3,7.82,1.08c2.76,0.78,5.34,2.27,7.7,4.44
		c2.09,2.06,3.58,4.31,4.54,6.77c0.96,2.44,1.42,4.87,1.39,7.27v11.33h-19.57v-7.56c0.02-2-0.7-3.81-2.16-5.4
		C416.13,141.94,414.33,141.22,412.4,141.31"/>
	<path class="st1" d="M489.14,202.4c-7.62-0.05-14.3-1.61-20.04-4.72c-5.77-3.12-10.26-7.6-13.5-13.43
		c-3.23-5.83-4.86-12.83-4.93-21.01c0.07-8.21,1.7-15.24,4.93-21.06c3.24-5.82,7.74-10.29,13.5-13.38
		c5.74-3.09,12.42-4.66,20.04-4.68c7.57,0.02,14.23,1.6,19.96,4.68c5.73,3.09,10.22,7.57,13.45,13.38
		c3.23,5.83,4.88,12.85,4.92,21.06c-0.05,8.18-1.7,15.18-4.92,21.01c-3.23,5.82-7.73,10.3-13.45,13.43
		C503.36,200.79,496.71,202.35,489.14,202.4 M507.91,163.24c0.14-6.75-1.11-12.29-3.77-16.63c-2.65-4.34-7.64-6.57-14.99-6.72
		c-7.4,0.15-12.44,2.38-15.11,6.72c-2.68,4.33-3.94,9.88-3.79,16.63c-0.14,6.76,1.11,12.31,3.79,16.64
		c2.67,4.33,7.71,6.57,15.11,6.71c7.35-0.14,12.34-2.38,14.99-6.71S508.05,170.01,507.91,163.24"/>
	<path class="st1" d="M582.15,141.28h-20.37v59.52H542.2v-75.33h43.73c4.17-0.06,7.93,0.42,11.26,1.44
		c3.34,1.02,6.38,3.03,9.13,5.99c2.22,2.3,3.84,4.68,4.84,7.1c1.03,2.43,1.52,5.24,1.51,8.42v52.37H593.1v-48.6
		c0.09-3.19-0.9-5.84-2.97-7.96C588.01,142.11,585.35,141.12,582.15,141.28"/>
	<rect x="629.37" y="125.59" class="st1" width="19.55" height="75.32"/>
	<path class="st1" d="M695.17,125.59h30.91v15.8h-27.95c-5.67,0.05-10.12,1.99-13.38,5.81c-3.25,3.82-4.91,9.18-4.97,16.04
		c0.06,6.83,1.72,12.15,4.97,16c3.26,3.84,7.72,5.8,13.38,5.86h27.95v15.8h-30.91c-11.42-0.03-20.3-3.25-26.59-9.66
		c-6.3-6.41-9.51-15.74-9.58-28c0.07-12.31,3.28-21.66,9.58-28.03C674.87,128.83,683.75,125.63,695.17,125.59"/>
	<path class="st1" d="M181.88,173.91v-32.52v-15.8h19.71v15.8v27.25c-0.03,3.14,0.17,5.86,0.59,8.19c0.44,2.33,1.27,4.14,2.52,5.45
		c2.2,2.03,4.96,2.97,8.24,2.82h7.43v15.8h-14.32c-1.08,0.03-2.61-0.07-4.61-0.3c-1.98-0.22-4.06-0.7-6.25-1.42
		c-2.19-0.71-4.16-1.8-5.88-3.27c-3.32-3.01-5.41-6.31-6.29-9.89C182.13,182.44,181.78,178.41,181.88,173.91"/>
	<path class="st0" d="M173.67,44.16c-1.47,2.8-2.32,5.99-2.32,9.39c0,4.65,1.57,8.94,4.23,12.33c3.67,4.72,9.41,7.76,15.84,7.76
		c6.46,0,12.19-3.04,15.87-7.76c2.63-3.39,4.22-7.68,4.22-12.33c0-3.4-0.85-6.59-2.34-9.39c-3.37-6.36-10.04-10.68-17.75-10.68
		C183.74,33.48,177.06,37.8,173.67,44.16 M272.33,24.22v11.83h5.16c3.36,0,6.09,2.72,6.09,6.09v25.59c0,3.36-2.73,6.1-6.09,6.1
		h-35.24c-3.37,0-6.1-2.74-6.1-6.1V65.9h-7.07c-5.2,16-20.21,27.54-37.93,27.54c-17.62,0-32.58-11.45-37.84-27.32h-7.68V44.38h6.71
		c4.14-17.6,19.96-30.71,38.81-30.71c18.79,0,34.54,13,38.77,30.49h6.24v-2.03c0-3.36,2.72-6.09,6.1-6.09h23.45V24.22
		c-1.66,0-2.85-1.2-2.85-2.68V8.72h-20.21c-1.34,0-2.45-1.09-2.45-2.44V2.43c0-1.34,1.11-2.43,2.45-2.43h52.78
		c1.34,0,2.43,1.09,2.43,2.43v3.85c0,1.35-1.09,2.44-2.43,2.44h-20.22v12.81c0,1.48-1.2,2.68-2.68,2.68h-0.2V24.22z"/>
	<path class="st0" d="M157.86,233.96c-1.07-1.86-2.36-2.93-4.65-2.93c-2.4,0-4.47,1.72-4.47,4.19c0,2.33,2.39,3.4,4.22,4.22
		l1.79,0.79c3.51,1.54,6.48,3.3,6.48,7.59c0,4.73-3.79,8.34-8.48,8.34c-4.33,0-7.55-2.79-8.41-6.98l2.94-0.82
		c0.39,2.76,2.5,5.01,5.4,5.01s5.55-2.22,5.55-5.27c0-3.15-2.47-4.22-4.98-5.37l-1.65-0.71c-3.15-1.43-5.87-3.04-5.87-6.91
		c0-4.19,3.54-6.87,7.55-6.87c3.01,0,5.55,1.54,6.98,4.19L157.86,233.96z"/>
	<path class="st0" d="M168.45,248.24c0,2.83,0.32,5.27,3.79,5.27c3.47,0,3.79-2.44,3.79-5.27v-9.38h2.87v9.71
		c0,4.47-1.69,7.59-6.66,7.59c-4.98,0-6.66-3.12-6.66-7.59v-9.71h2.87L168.45,248.24L168.45,248.24z"/>
	<path class="st0" d="M184.09,226.15h2.86v15.12h0.07c1.36-1.79,3.47-2.87,5.76-2.87c5.01,0,8.09,4.12,8.09,8.88
		c0,4.69-3.11,8.88-8.05,8.88c-2.33,0-4.44-0.97-5.8-2.79h-0.07v2.33h-2.86L184.09,226.15L184.09,226.15z M186.81,247.1
		c0,3.29,1.93,6.41,5.52,6.41c3.69,0,5.62-2.97,5.62-6.37c0-3.36-2.11-6.08-5.65-6.08C188.96,241.05,186.81,243.95,186.81,247.1"/>
	<path class="st0" d="M211.69,242.77c-0.39-0.89-1.25-1.72-2.29-1.72c-1,0-2.08,0.78-2.08,1.86c0,1.54,1.93,2.11,3.9,2.94
		s3.9,2,3.9,4.83c0,3.18-2.58,5.48-5.7,5.48c-2.83,0-5.04-1.61-5.94-4.26l2.54-1.08c0.71,1.57,1.54,2.69,3.44,2.69
		c1.54,0,2.72-1.04,2.72-2.58c0-3.76-7.59-2.47-7.59-7.76c0-2.83,2.29-4.76,5.01-4.76c1.93,0,3.72,1.36,4.48,3.11L211.69,242.77z"/>
	<path class="st0" d="M222.93,232.53c0,1.14-0.93,2.04-2.04,2.04s-2.04-0.9-2.04-2.04c0-1.11,0.93-2.04,2.04-2.04
		S222.93,231.42,222.93,232.53 M222.32,255.69h-2.86v-16.82h2.86V255.69z"/>
	<path class="st0" d="M240.63,253.36h-0.07c-1.4,1.82-3.51,2.79-5.8,2.79c-4.94,0-8.05-4.19-8.05-8.84c0-4.8,3.04-8.91,8.09-8.91
		c2.26,0,4.4,1.07,5.77,2.87h0.07v-15.12h2.86v29.54h-2.86L240.63,253.36L240.63,253.36z M229.64,247.1c0,3.29,1.93,6.41,5.52,6.41
		c3.68,0,5.62-2.97,5.62-6.37c0-3.36-2.11-6.08-5.66-6.08C231.78,241.05,229.64,243.95,229.64,247.1"/>
	<path class="st0" d="M252.59,232.53c0,1.14-0.93,2.04-2.04,2.04s-2.04-0.9-2.04-2.04c0-1.11,0.93-2.04,2.04-2.04
		C251.65,230.49,252.59,231.42,252.59,232.53 M251.98,255.69h-2.86v-16.82h2.86V255.69z"/>
	<path class="st0" d="M273.15,255.69h-2.86v-2.33h-0.07c-1.47,1.86-3.43,2.79-5.8,2.79c-4.94,0-8.05-4.19-8.05-8.84
		c0-4.8,3.04-8.91,8.09-8.91c2.29,0,4.37,1.07,5.77,2.87h0.07v-2.4h2.86v16.82H273.15z M259.3,247.1c0,3.29,1.93,6.41,5.51,6.41
		c3.69,0,5.63-2.97,5.63-6.37c0-3.36-2.11-6.08-5.66-6.08C261.44,241.05,259.3,243.95,259.3,247.1"/>
	<path class="st0" d="M281.27,240.69h0.07c1-1.33,1.86-2.29,3.72-2.29c0.97,0,1.76,0.32,2.58,0.78l-1.36,2.62
		c-0.57-0.39-0.97-0.75-1.72-0.75c-3.15,0-3.29,4.04-3.29,6.23v8.41h-2.86v-16.82h2.86V240.69z"/>
	<path class="st0" d="M294.48,232.53c0,1.14-0.93,2.04-2.04,2.04c-1.11,0-2.04-0.9-2.04-2.04c0-1.11,0.93-2.04,2.04-2.04
		C293.55,230.49,294.48,231.42,294.48,232.53 M293.87,255.69h-2.86v-16.82h2.86V255.69z"/>
	<path class="st0" d="M315.05,255.69h-2.86v-2.33h-0.07c-1.47,1.86-3.44,2.79-5.8,2.79c-4.94,0-8.05-4.19-8.05-8.84
		c0-4.8,3.04-8.91,8.09-8.91c2.29,0,4.37,1.07,5.77,2.87h0.07v-2.4h2.86v16.82H315.05z M301.2,247.1c0,3.29,1.93,6.41,5.51,6.41
		c3.69,0,5.62-2.97,5.62-6.37c0-3.36-2.11-6.08-5.66-6.08C303.34,241.05,301.2,243.95,301.2,247.1"/>
	<path class="st0" d="M345.54,253.36h-0.07c-1.4,1.82-3.51,2.79-5.8,2.79c-4.94,0-8.05-4.19-8.05-8.84c0-4.8,3.04-8.91,8.09-8.91
		c2.26,0,4.4,1.07,5.77,2.87h0.07v-15.12h2.87v29.54h-2.87v-2.33H345.54z M334.55,247.1c0,3.29,1.93,6.41,5.51,6.41
		c3.68,0,5.62-2.97,5.62-6.37c0-3.36-2.11-6.08-5.66-6.08C336.7,241.05,334.55,243.95,334.55,247.1"/>
	<path class="st0" d="M355.51,247.88c0.04,3.12,2.26,5.62,5.52,5.62c2.44,0,4.01-1.47,5.12-3.47l2.44,1.39
		c-1.61,3.01-4.33,4.73-7.77,4.73c-5.01,0-8.23-3.83-8.23-8.66c0-4.98,2.9-9.09,8.16-9.09c5.41,0,8.27,4.47,7.99,9.48L355.51,247.88
		L355.51,247.88z M365.71,245.45c-0.4-2.44-2.44-4.4-4.94-4.4c-2.47,0-4.76,1.96-5.12,4.4H365.71z"/>
	<path class="st0" d="M385.35,228.7h4.44c4.91,0,9.02,1.79,9.02,7.3c0,2.18-0.82,4.05-2.65,5.27c3.22,0.79,5.11,3.68,5.11,6.91
		c0,5.37-4.33,7.52-9.66,7.52h-6.26L385.35,228.7L385.35,228.7z M388.36,240.58h1.14c3.4,0,6.3-0.4,6.3-4.58
		c0-4.08-2.57-4.51-6.26-4.51h-1.18V240.58z M388.36,252.9h3.01c3.36,0,6.91-0.82,6.91-4.94c0-4.19-4.01-4.8-7.31-4.8h-2.61
		L388.36,252.9L388.36,252.9z"/>
	<path class="st0" d="M408.67,240.69h0.07c1-1.33,1.86-2.29,3.72-2.29c0.97,0,1.75,0.32,2.58,0.78l-1.36,2.62
		c-0.58-0.39-0.97-0.75-1.72-0.75c-3.15,0-3.29,4.04-3.29,6.23v8.41h-2.86v-16.82h2.86V240.69z"/>
	<path class="st0" d="M432.94,255.69h-2.86v-2.33h-0.07c-1.47,1.86-3.44,2.79-5.8,2.79c-4.94,0-8.05-4.19-8.05-8.84
		c0-4.8,3.04-8.91,8.09-8.91c2.29,0,4.37,1.07,5.77,2.87h0.07v-2.4h2.86v16.82H432.94z M419.09,247.1c0,3.29,1.93,6.41,5.51,6.41
		c3.69,0,5.62-2.97,5.62-6.37c0-3.36-2.11-6.08-5.66-6.08C421.23,241.05,419.09,243.95,419.09,247.1"/>
	<polygon class="st0" points="435.85,238.87 439.18,238.87 445.12,250.93 450.56,238.87 453.82,238.87 441.4,265.14 438.14,265.14 
		443.59,254.11 	"/>
	<rect x="469.23" y="228.7" class="st0" width="3.01" height="26.99"/>
	<path class="st0" d="M480.79,240.9h0.07c1.18-1.61,2.72-2.5,4.8-2.5c4.65,0,5.73,3.36,5.73,7.3v9.99h-2.87v-9.49
		c0-2.72-0.22-5.15-3.54-5.15c-3.94,0-4.19,3.65-4.19,6.65v7.99h-2.86v-16.83h2.86V240.9z"/>
	<polygon class="st0" points="499.83,255.69 496.97,255.69 496.97,241.52 495.21,241.52 495.21,238.87 496.97,238.87 496.97,232.81 
		499.83,232.81 499.83,238.87 502.84,238.87 502.84,241.52 499.83,241.52 	"/>
	<path class="st0" d="M507.25,247.88c0.04,3.12,2.26,5.62,5.52,5.62c2.44,0,4.01-1.47,5.12-3.47l2.44,1.39
		c-1.61,3.01-4.33,4.73-7.76,4.73c-5.01,0-8.24-3.83-8.24-8.66c0-4.98,2.9-9.09,8.16-9.09c5.41,0,8.27,4.47,7.99,9.48L507.25,247.88
		L507.25,247.88z M517.46,245.45c-0.4-2.44-2.44-4.4-4.94-4.4c-2.47,0-4.76,1.96-5.12,4.4H517.46z"/>
	<path class="st0" d="M527.4,240.69h0.07c1-1.33,1.86-2.29,3.72-2.29c0.97,0,1.75,0.32,2.58,0.78l-1.36,2.62
		c-0.58-0.39-0.97-0.75-1.72-0.75c-3.15,0-3.29,4.04-3.29,6.23v8.41h-2.86v-16.82h2.86L527.4,240.69L527.4,240.69z"/>
	<path class="st0" d="M539.72,240.9h0.07c1.18-1.61,2.72-2.5,4.8-2.5c4.65,0,5.73,3.36,5.73,7.3v9.99h-2.87v-9.49
		c0-2.72-0.22-5.15-3.54-5.15c-3.94,0-4.19,3.65-4.19,6.65v7.99h-2.86v-16.83h2.86V240.9z"/>
	<path class="st0" d="M571.27,255.69h-2.86v-2.33h-0.07c-1.47,1.86-3.43,2.79-5.8,2.79c-4.94,0-8.05-4.19-8.05-8.84
		c0-4.8,3.04-8.91,8.09-8.91c2.29,0,4.37,1.07,5.77,2.87h0.07v-2.4h2.86v16.82H571.27z M557.42,247.1c0,3.29,1.93,6.41,5.51,6.41
		c3.69,0,5.63-2.97,5.63-6.37c0-3.36-2.11-6.08-5.66-6.08C559.57,241.05,557.42,243.95,557.42,247.1"/>
	<polygon class="st0" points="579.84,255.69 576.97,255.69 576.97,241.52 575.22,241.52 575.22,238.87 576.97,238.87 576.97,232.81 
		579.84,232.81 579.84,238.87 582.84,238.87 582.84,241.52 579.84,241.52 	"/>
	<path class="st0" d="M589.5,232.53c0,1.14-0.93,2.04-2.04,2.04s-2.04-0.9-2.04-2.04c0-1.11,0.93-2.04,2.04-2.04
		S589.5,231.42,589.5,232.53 M588.89,255.69h-2.86v-16.82h2.86V255.69z"/>
	<path class="st0" d="M593.23,247.31c0-4.94,3.9-8.91,8.84-8.91s8.85,3.97,8.85,8.91s-3.94,8.84-8.85,8.84
		C597.18,256.16,593.23,252.26,593.23,247.31 M596.1,247.28c0,3.43,2.44,6.23,5.98,6.23c3.55,0,5.98-2.79,5.98-6.23
		c0-3.4-2.44-6.23-5.98-6.23C598.53,241.05,596.1,243.88,596.1,247.28"/>
	<path class="st0" d="M617.91,240.9h0.07c1.18-1.61,2.72-2.5,4.8-2.5c4.65,0,5.73,3.36,5.73,7.3v9.99h-2.87v-9.49
		c0-2.72-0.22-5.15-3.54-5.15c-3.94,0-4.19,3.65-4.19,6.65v7.99h-2.86v-16.83h2.86V240.9z"/>
	<path class="st0" d="M649.47,255.69h-2.87v-2.33h-0.07c-1.47,1.86-3.44,2.79-5.8,2.79c-4.94,0-8.05-4.19-8.05-8.84
		c0-4.8,3.04-8.91,8.09-8.91c2.29,0,4.37,1.07,5.77,2.87h0.07v-2.4h2.87v16.82H649.47z M635.62,247.1c0,3.29,1.93,6.41,5.51,6.41
		c3.69,0,5.62-2.97,5.62-6.37c0-3.36-2.11-6.08-5.66-6.08C637.76,241.05,635.62,243.95,635.62,247.1"/>
	<rect x="654.77" y="226.15" class="st0" width="2.87" height="29.54"/>
	<polygon class="st0" points="667.4,252.68 663.36,261.85 661.42,261.06 664.75,251.75 	"/>
	<rect x="685.86" y="228.7" class="st0" width="3.01" height="26.99"/>
	<path class="st0" d="M697.42,240.9h0.07c1.18-1.61,2.72-2.5,4.8-2.5c4.65,0,5.73,3.36,5.73,7.3v9.99h-2.87v-9.49
		c0-2.72-0.22-5.15-3.54-5.15c-3.94,0-4.19,3.65-4.19,6.65v7.99h-2.86v-16.83h2.86V240.9z"/>
	<path class="st0" d="M726.15,243.88h-0.07c-1.33-1.69-2.97-2.83-5.23-2.83c-3.48,0-5.95,2.86-5.95,6.23c0,3.33,2.29,6.23,5.8,6.23
		c2.4,0,4.08-1.08,5.48-2.9h0.07v3.83c-1.65,1.11-3.33,1.72-5.34,1.72c-5.08,0-8.95-3.8-8.95-8.88c0-5.01,4.05-8.88,8.99-8.88
		c1.82,0,3.69,0.6,5.19,1.68v3.8H726.15z"/>
	<path class="st0" d="M735.34,254.11c0,1.11-0.9,2.05-2,2.05c-1.11,0-2.01-0.93-2.01-2.05c0-1.07,0.9-1.96,2.01-1.96
		S735.34,253.04,735.34,254.11"/>
</g>
</svg>
