<?xml version="1.0" encoding="utf-8"?>
<!-- Generator: Adobe Illustrator 26.1.0, SVG Export Plug-In . SVG Version: 6.00 Build 0)  -->
<svg version="1.1" id="Capa_1" xmlns="http://www.w3.org/2000/svg" xmlns:xlink="http://www.w3.org/1999/xlink" x="0px" y="0px"
	 viewBox="0 0 760.85 200.84" style="enable-background:new 0 0 760.85 200.84;" xml:space="preserve">
<style type="text/css">
	.st0{fill:#FFFFFF;}
	.st1{fill-rule:evenodd;clip-rule:evenodd;fill:#FFFFFF;}
</style>
<g>
	<path class="st0" d="M747.87,122.41c-7.19,0-13.01-5.83-13.01-13c0-7.18,5.83-13,13.01-13c7.15,0,12.98,5.82,12.98,13
		C760.85,116.58,755.02,122.41,747.87,122.41 M747.87,97.97c-6.34,0-11.46,5.14-11.46,11.45s5.12,11.43,11.46,11.43
		c6.29,0,11.41-5.12,11.41-11.43C759.28,103.11,754.16,97.97,747.87,97.97"/>
	<path class="st1" d="M743.07,115.26v-11.68h5.29c0.63-0.02,1.23,0.09,1.8,0.29c0.56,0.19,1.03,0.53,1.4,1.03
		c0.37,0.48,0.55,1.17,0.56,2.05c0.02,0.5-0.08,0.98-0.26,1.44c-0.15,0.46-0.43,0.84-0.84,1.17c-0.4,0.32-0.92,0.54-1.58,0.66
		l3.21,5.06h-1.89l-3.14-4.96h-2.99v4.96h-1.56L743.07,115.26L743.07,115.26z M744.62,104.92v4.03h3.5
		c0.75,0.02,1.34-0.12,1.78-0.42c0.45-0.29,0.67-0.82,0.67-1.59c0-0.75-0.23-1.29-0.67-1.59c-0.44-0.3-1.03-0.44-1.78-0.42h-3.5
		V104.92z"/>
	<polygon class="st1" points="31.58,200.9 0,125.59 22.27,125.59 42.78,178.36 43.46,178.36 63.98,125.59 86.25,125.59 54.67,200.9 
			"/>
	<path class="st1" d="M130.83,140.47H95.05v-14.99h40.91c4.26-0.07,8.09,0.38,11.46,1.35c3.4,0.96,6.68,2.85,9.87,5.67
		c3.27,3.03,5.43,6.38,6.44,10.05c1.02,3.67,1.48,7.8,1.37,12.37v45.89h-51.96c-7.57-0.12-13.37-2.25-17.34-6.36
		c-3.97-4.13-5.98-9.51-6-16.18c0.03-6.74,2.03-12.17,6-16.3s9.77-6.26,17.34-6.38h32.4v-0.67c0.06-2.04-0.02-3.87-0.25-5.44
		s-0.96-3.18-2.18-4.82c-1.5-1.95-3.29-3.15-5.39-3.61C135.63,140.58,133.34,140.39,130.83,140.47 M120.83,185.69h24.7v-14.98h-25.1
		c-2.49-0.1-4.72,0.33-6.69,1.29c-1.99,0.98-3.05,3.06-3.17,6.27c0.12,3.14,1.2,5.19,3.26,6.14
		C115.89,185.36,118.22,185.78,120.83,185.69"/>
	<polygon class="st1" points="254.67,200.9 223.1,125.59 245.37,125.59 265.87,178.36 266.56,178.36 287.07,125.59 309.34,125.59 
		277.75,200.9 	"/>
	<path class="st1" d="M328.17,173.91v-32.52h-13.49v-15.8h13.49h19.7h18.77v15.8h-18.77v27.25c-0.01,3.14,0.18,5.86,0.61,8.19
		c0.42,2.33,1.25,4.14,2.5,5.45c2.2,2.03,4.95,2.97,8.22,2.82h7.43v15.8h-14.31c-1.09,0.03-2.62-0.07-4.61-0.3
		c-1.98-0.22-4.06-0.7-6.25-1.42c-2.19-0.71-4.15-1.8-5.87-3.27c-3.33-3.01-5.42-6.31-6.29-9.89
		C328.44,182.44,328.05,178.41,328.17,173.91"/>
	<path class="st1" d="M412.4,141.31h-9.45v59.53h-19.58v-75.3h34.7c2.42-0.06,5.03,0.3,7.82,1.08c2.76,0.78,5.34,2.27,7.7,4.44
		c2.09,2.06,3.58,4.31,4.54,6.77c0.96,2.44,1.42,4.87,1.39,7.27v11.33h-19.57v-7.56c0.02-2-0.7-3.81-2.16-5.4
		C416.13,141.94,414.33,141.22,412.4,141.31"/>
	<path class="st1" d="M489.14,202.4c-7.62-0.05-14.3-1.61-20.04-4.72c-5.77-3.12-10.26-7.6-13.5-13.43
		c-3.23-5.83-4.86-12.83-4.93-21.01c0.07-8.21,1.7-15.24,4.93-21.06c3.24-5.82,7.74-10.29,13.5-13.38
		c5.74-3.09,12.42-4.66,20.04-4.68c7.57,0.02,14.23,1.6,19.96,4.68c5.73,3.09,10.22,7.57,13.45,13.38
		c3.23,5.83,4.88,12.85,4.92,21.06c-0.05,8.18-1.7,15.18-4.92,21.01c-3.23,5.82-7.73,10.3-13.45,13.43
		C503.36,200.79,496.71,202.35,489.14,202.4 M507.91,163.24c0.14-6.75-1.11-12.29-3.77-16.63c-2.65-4.34-7.64-6.57-14.99-6.72
		c-7.4,0.15-12.44,2.38-15.11,6.72c-2.68,4.33-3.94,9.88-3.79,16.63c-0.14,6.76,1.11,12.31,3.79,16.64
		c2.67,4.33,7.71,6.57,15.11,6.71c7.35-0.14,12.34-2.38,14.99-6.71S508.05,170.01,507.91,163.24"/>
	<path class="st1" d="M582.15,141.28h-20.37v59.52H542.2v-75.33h43.73c4.17-0.06,7.93,0.42,11.26,1.44
		c3.34,1.02,6.38,3.03,9.13,5.99c2.22,2.3,3.84,4.68,4.84,7.1c1.03,2.43,1.52,5.24,1.51,8.42v52.37H593.1v-48.6
		c0.09-3.19-0.9-5.84-2.97-7.96C588.01,142.11,585.35,141.12,582.15,141.28"/>
	<rect x="629.37" y="125.59" class="st1" width="19.55" height="75.32"/>
	<path class="st1" d="M695.17,125.59h30.91v15.8h-27.95c-5.67,0.05-10.12,1.99-13.38,5.81c-3.25,3.82-4.91,9.18-4.97,16.04
		c0.06,6.83,1.72,12.15,4.97,16c3.26,3.84,7.72,5.8,13.38,5.86h27.95v15.8h-30.91c-11.42-0.03-20.3-3.25-26.59-9.66
		c-6.3-6.41-9.51-15.74-9.58-28c0.07-12.31,3.28-21.66,9.58-28.03C674.87,128.83,683.75,125.63,695.17,125.59"/>
	<path class="st1" d="M181.88,173.91v-32.52v-15.8h19.71v15.8v27.25c-0.03,3.14,0.17,5.86,0.59,8.19c0.44,2.33,1.27,4.14,2.52,5.45
		c2.2,2.03,4.96,2.97,8.24,2.82h7.43v15.8h-14.32c-1.08,0.03-2.61-0.07-4.61-0.3c-1.98-0.22-4.06-0.7-6.25-1.42
		c-2.19-0.71-4.16-1.8-5.88-3.27c-3.32-3.01-5.41-6.31-6.29-9.89C182.13,182.44,181.78,178.41,181.88,173.91"/>
	<path class="st0" d="M173.67,44.16c-1.47,2.8-2.32,5.99-2.32,9.39c0,4.65,1.57,8.94,4.23,12.33c3.67,4.72,9.41,7.76,15.84,7.76
		c6.46,0,12.19-3.04,15.87-7.76c2.63-3.39,4.22-7.68,4.22-12.33c0-3.4-0.85-6.59-2.34-9.39c-3.37-6.36-10.04-10.68-17.75-10.68
		C183.74,33.48,177.06,37.8,173.67,44.16 M272.33,24.22v11.83h5.16c3.36,0,6.09,2.72,6.09,6.09v25.59c0,3.36-2.73,6.1-6.09,6.1
		h-35.24c-3.37,0-6.1-2.74-6.1-6.1V65.9h-7.07c-5.2,16-20.21,27.54-37.93,27.54c-17.62,0-32.58-11.45-37.84-27.32h-7.68V44.38h6.71
		c4.14-17.6,19.96-30.71,38.81-30.71c18.79,0,34.54,13,38.77,30.49h6.24v-2.03c0-3.36,2.72-6.09,6.1-6.09h23.45V24.22
		c-1.66,0-2.85-1.2-2.85-2.68V8.72h-20.21c-1.34,0-2.45-1.09-2.45-2.44V2.43c0-1.34,1.11-2.43,2.45-2.43h52.78
		c1.34,0,2.43,1.09,2.43,2.43v3.85c0,1.35-1.09,2.44-2.43,2.44h-20.22v12.81c0,1.48-1.2,2.68-2.68,2.68h-0.2V24.22z"/>
</g>
</svg>
