<?xml version="1.0" encoding="utf-8"?>
<!-- Generator: Adobe Illustrator 26.1.0, SVG Export Plug-In . SVG Version: 6.00 Build 0)  -->
<svg version="1.1" id="Capa_1" xmlns="http://www.w3.org/2000/svg" xmlns:xlink="http://www.w3.org/1999/xlink" x="0px" y="0px"
	 viewBox="0 0 152.21 93.42" style="enable-background:new 0 0 152.21 93.42;" xml:space="preserve">
<style type="text/css">
	.st0{fill:#002B49;}
	.st1{fill-rule:evenodd;clip-rule:evenodd;fill:#002B49;}
</style>
<path class="st0" d="M28.05,44.16c-1.47,2.8-2.32,5.99-2.32,9.39c0,4.65,1.57,8.94,4.23,12.33c3.67,4.72,9.41,7.76,15.84,7.76
	c6.46,0,12.19-3.04,15.87-7.76c2.63-3.39,4.22-7.68,4.22-12.33c0-3.4-0.85-6.59-2.34-9.39C60.17,37.8,53.5,33.48,45.8,33.48
	C38.11,33.48,31.43,37.8,28.05,44.16 M126.71,24.22v11.83h5.16c3.36,0,6.09,2.72,6.09,6.09v25.59c0,3.36-2.73,6.1-6.09,6.1H96.62
	c-3.37,0-6.1-2.74-6.1-6.1v-1.83h-7.07c-5.2,16-20.21,27.54-37.93,27.54c-17.62,0-32.58-11.45-37.84-27.32H0V44.38h6.71
	c4.14-17.6,19.96-30.71,38.81-30.71c18.79,0,34.54,13,38.77,30.49h6.24v-2.03c0-3.36,2.72-6.09,6.1-6.09h23.45V24.22
	c-1.66,0-2.85-1.2-2.85-2.68V8.72H97c-1.34,0-2.45-1.09-2.45-2.44V2.43C94.56,1.09,95.66,0,97,0h52.78c1.34,0,2.43,1.09,2.43,2.43
	v3.85c0,1.35-1.09,2.44-2.43,2.44h-20.22v12.81c0,1.48-1.2,2.68-2.68,2.68H126.71z"/>
</svg>
